# AST/ASF file generated using VICON BodyLanguage
# -----------------------------------------------
:version 1.10
:name VICON
:units
  mass 1.0
  length 0.45
  angle deg
:documentation
   .ast/.asf automatically generated from VICON data using
   VICON BodyBuilder and BodyLanguage model FoxedUp or BRILLIANT.MOD
:root
   order TX TY TZ RX RY RZ
   axis XYZ
   position 0 0 0  
   orientation 0 0 0 
:bonedata
  begin
     id 1 
     name lhipjoint
     direction 0.567725 -0.736092 0.368589 
     length 2.42353 
     axis 0 0 0  XYZ
  end
  begin
     id 2 
     name lfemur
     direction 0.34202 -0.939693 0  
     length 7.24894  
     axis 0 0 20  XYZ
    dof rx ry rz
    limits (-160.0 20.0)
           (-70.0 70.0)
           (-60.0 70.0)
  end
  begin
     id 3 
     name ltibia
     direction 0.34202 -0.939693 0   
     length 7.6997   
     axis 0 0 20   XYZ
    dof rx
    limits (-10.0 170.0)
  end
  begin
     id 4 
     name lfoot
     direction 0.100767 -0.276854 0.955614   
     length 2.37556   
     axis -90 7.62852e-016 20   XYZ
    dof rx rz
    limits (-45.0 90.0)
           (-70.0 20.0)
  end
  begin
     id 5 
     name ltoes
     direction 1.53592e-011 -4.21894e-011 1   
     length 1.18363   
     axis -90 7.62852e-016 20   XYZ
    dof rx
    limits (-90.0 20.0)
  end
  begin
     id 6 
     name rhipjoint
     direction -0.556459 -0.742938 0.372017   
     length 2.4012  
     axis 0 0 0  XYZ 
  end
  begin
     id 7 
     name rfemur
     direction -0.34202 -0.939693 0   
     length 7.5119   
     axis 0 0 -20   XYZ
    dof rx ry rz
    limits (-160.0 20.0)
           (-70.0 70.0)
           (-70.0 60.0)
  end
  begin
     id 8 
     name rtibia
     direction -0.34202 -0.939693 0   
     length 7.50155   
     axis 0 0 -20   XYZ
    dof rx
    limits (-10.0 170.0)
 end
 begin
     id 9 
     name rfoot
     direction -0.118427 -0.325376 0.938139   
     length 2.32487  
     axis -90 -7.62852e-016 -20   XYZ
    dof rx rz
    limits (-45.0 90.0)
           (-20.0 70.0)
  end
  begin
     id 10 
     name rtoes
     direction -1.53525e-011 -4.21868e-011 1   
     length 1.15233   
     axis -90 -7.62852e-016 -20   XYZ
    dof rx
    limits (-90.0 20.0)
  end
  begin
     id 11 
     name lowerback
     direction 0.0287568 0.999577 -0.00434502   
     length 2.15243   
     axis 0 0 0   XYZ
    dof rx ry rz
    limits (-20.0 45.0)
           (-30.0 30.0)
           (-30.0 30.0)
  end
  begin
     id 12 
     name upperback
     direction 0.0294009 0.99956 0.00404628   
     length 2.15427   
     axis 0 0 0   XYZ
    dof rx ry rz
    limits (-20.0 45.0)
           (-30.0 30.0)
           (-30.0 30.0)
  end
  begin
     id 13 
     name thorax
     direction 0.0151014 0.999868 0.0059419   
     length 2.14898   
     axis 0 0 0   XYZ
    dof rx ry rz
    limits (-20.0 45.0)
           (-30.0 30.0)
           (-30.0 30.0)
  end
  begin
     id 14 
     name lowerneck
     direction -0.0249197 0.989906 0.139515   
     length 1.6861   
     axis 0 0 0   XYZ
    dof rx ry rz
    limits (-20.0 45.0)
           (-30.0 30.0)
           (-30.0 30.0)
  end
  begin
     id 15 
     name upperneck
     direction 0.0438463 0.988795 -0.142693   
     length 1.71276   
     axis 0 0 0   XYZ
    dof rx ry rz
    limits (-20.0 45.0)
           (-30.0 30.0)
           (-30.0 30.0)
  end
  begin
     id 16
     name head
     direction 0.0148499 0.997845 -0.0639186  
     length 1.7209  
     axis 0 0 0   XYZ
    dof rx ry rz
    limits (-20.0 45.0)
           (-30.0 30.0)
           (-30.0 30.0)
  end
  begin
     id 17 
     name lclavicle
     direction 0.940298 0.323464 -0.105876  
     length 3.9048  
     axis 0 0 0   XYZ
    dof ry rz
    limits (-20.0 10.0)
           (0.0 20.0)
  end
  begin
     id 18 
     name lhumerus
     direction 1 -4.48954e-011 -4.9675e-028   
     length 4.6851   
     axis 180 -30 -90   XYZ
    dof rx ry rz
    limits (-60.0 90.0)
           (-90.0 90.0)
           (-90.0 90.0)
  end
  begin
     id 19
     name lradius
     direction 1 -4.48992e-011 -1.03359e-026   
     length 3.39626   
     axis 180 -30 -90   XYZ
    dof rx
    limits (-10.0 170.0)
  end
  begin
     id 20
     name lwrist
     direction 1 -4.48906e-011 -1.67336e-026   
     length 1.69813   
     axis 9.90442e-015 90 90   XYZ
    dof ry
    limits (-180.0 0.0)
 end
  begin
     id 21 
     name lhand
     direction 1 -4.49006e-011 -3.34673e-026   
     length 0.486078   
     axis 2.1355e-014 90 90   XYZ
    dof rx rz
    limits (-90.0 90.0)
           (-45.0 45.0)
  end
  begin
     id 22 
     name lfingers
     direction 1 -4.48992e-011 -6.69345e-026   
     length 0.391889   
     axis 4.27099e-014 90 90   XYZ
    dof rx
    limits (0.0 90.0)
  end
  begin
     id 23
     name lthumb
     direction 0.707107 -6.34926e-011 0.707107   
     length 0.562676   
     axis -90 45 2.85299e-015   XYZ
    dof rx rz
    limits (-45.0 45.0)
           (-45.0 45.0)
  end
  begin
     id 24 
     name rclavicle
     direction -0.882459 0.414895 -0.221648   
     length 3.44646  
     axis 0 0 0   XYZ 
    dof ry rz
    limits (-10.0 20.0)
           (-20.0 0.0)
  end
  begin
     id 25 
     name rhumerus
     direction -1 -4.48962e-011 -2.37984e-027  
     length 5.55576   
     axis 180 30 90   XYZ
    dof rx ry rz
    limits (-90.0 60.0)
           (-90.0 90.0)
           (-90.0 90.0)
  end
  begin
     id 26 
     name rradius
     direction -1 -4.48982e-011 -6.86791e-027   
     length 3.32774   
     axis 180 30 90   XYZ
    dof rx
    limits (-10.0 170.0)
  end
  begin
     id 27 
     name rwrist
     direction -1 -4.48961e-011 -1.67336e-026   
     length 1.66387   
     axis 9.90442e-015 -90 -90   XYZ
    dof ry
    limits (-180.0 0.0)
  end
  begin
     id 28
     name rhand
     direction -1 -4.4897e-011 -3.34673e-026   
     length 0.507628   
     axis 2.1355e-014 -90 -90   XYZ
    dof rx rz
    limits (-90.0 90.0)
           (-45.0 45.0)
  end
  begin
     id 29
     name rfingers
     direction -1 -4.48854e-011 -6.69345e-026   
     length 0.409263   
     axis 4.27099e-014 -90 -90   XYZ
    dof rx
    limits (0.0 90.0)
  end
  begin
     id 30
     name rthumb
     direction -0.707107 -6.34913e-011 0.707107   
     length 0.587622   
     axis -90 -45 -2.85299e-015   XYZ
    dof rx rz
    limits (-45.0 45.0)
           (-45.0 45.0)
  end
:hierarchy
  begin
    root lhipjoint rhipjoint lowerback
    lhipjoint lfemur
    lfemur ltibia
    ltibia lfoot
    lfoot ltoes
    rhipjoint rfemur
    rfemur rtibia
    rtibia rfoot
    rfoot rtoes
    lowerback upperback
    upperback thorax
    thorax lowerneck lclavicle rclavicle
    lowerneck upperneck
    upperneck head
    lclavicle lhumerus
    lhumerus lradius
    lradius lwrist
    lwrist lhand lthumb
    lhand lfingers
    rclavicle rhumerus
    rhumerus rradius
    rradius rwrist
    rwrist rhand rthumb
    rhand rfingers
  end

#!OML:ASF E:\motion texture\Top Level 1\Subject 1\Session 1\male.ASF
:FULLY-SPECIFIED
:DEGREES
116
root 35.3342 17.5363 5.43047 149.098 -83.4248 -139.625
lowerback -1.25202 -0.830817 1.86818
upperback -2.13166 -1.13219 0.551959
thorax -1.50704 -0.600981 -0.479395
lowerneck -17.3651 -8.75934 -11.5927
upperneck 11.3557 -10.7252 10.2972
head 7.52522 -4.80768 3.93548
rclavicle 1.36664e-015 -1.59028e-015
rhumerus -28.8546 7.35981 -88.7127
rradius 40.9654
rwrist 10.8075
rhand -14.7889 -24.5606
rfingers 7.12502
rthumb 11.3683 -54.2324
lclavicle 1.36664e-015 -1.59028e-015
lhumerus -27.2793 8.62444 84.8513
lradius 35.777
lwrist -15.8497
lhand -15.1112 26.6844
lfingers 7.12502
lthumb 11.0575 56.3731
rfemur -14.5543 -1.7712 23.4194
rtibia 54.3495
rfoot 3.03115 -13.6484
rtoes 2.5215
lfemur -25.216 -1.55822 -13.6487
ltibia 21.5191
lfoot -4.4669 7.13203
ltoes 2.63802
117
root 35.2083 17.547 5.4428 150.177 -83.518 -140.867
lowerback -1.1949 -0.872643 1.69686
upperback -2.12422 -1.186 0.516557
thorax -1.52971 -0.625336 -0.418782
lowerneck -17.3414 -8.72645 -11.5893
upperneck 11.4176 -10.686 10.2797
head 7.5358 -4.79058 3.93541
rclavicle -3.10601e-015 -1.59028e-015
rhumerus -28.7767 7.74839 -88.8287
rradius 41.8222
rwrist 11.0793
rhand -14.9112 -24.4529
rfingers 7.12502
rthumb 11.2504 -54.1313
lclavicle -3.10601e-015 -1.59028e-015
lhumerus -26.8343 7.64104 85.4273
lradius 36.2898
lwrist -15.5874
lhand -15.1905 26.8737
lfingers 7.12502
lthumb 10.981 56.5665
rfemur -15.5431 -2.04722 23.0907
rtibia 55.5109
rfoot 3.20218 -14.0227
rtoes 3.10239
lfemur -24.4622 -1.65672 -14
ltibia 21.337
lfoot -4.80216 7.15212
ltoes 2.73605
118
root 35.0831 17.5572 5.45482 151.267 -83.6061 -142.116
lowerback -1.13137 -0.91618 1.5283
upperback -2.12072 -1.2422 0.488547
thorax -1.55975 -0.650954 -0.351886
lowerneck -17.322 -8.69131 -11.584
upperneck 11.4791 -10.6427 10.2572
head 7.54609 -4.77173 3.93384
rclavicle 2.1916e-014 1.39149e-014
rhumerus -28.6944 8.13753 -88.9304
rradius 42.7192
rwrist 11.3652
rhand -15.0462 -24.3424
rfingers 7.12502
rthumb 11.1202 -54.0277
lclavicle 2.1916e-014 1.39149e-014
lhumerus -26.4045 6.64008 86.0006
lradius 36.8307
lwrist -15.3155
lhand -15.2784 27.0436
lfingers 7.12502
lthumb 10.8963 56.7409
rfemur -16.5387 -2.31648 22.7743
rtibia 56.582
rfoot 3.28929 -14.4047
rtoes 3.63391
lfemur -23.7036 -1.75406 -14.3446
ltibia 21.1375
lfoot -5.14053 7.18505
ltoes 2.80491
119
root 34.9587 17.567 5.46653 152.375 -83.6874 -143.379
lowerback -1.07262 -0.960929 1.36675
upperback -2.11465 -1.30038 0.464621
thorax -1.58431 -0.677572 -0.284756
lowerneck -17.3089 -8.65381 -11.5734
upperneck 11.5343 -10.5959 10.2327
head 7.55458 -4.75098 3.93116
rclavicle 3.42904e-015 -1.23246e-014
rhumerus -28.597 8.5232 -89.021
rradius 43.6556
rwrist 11.662
rhand -15.1886 -24.2344
rfingers 7.12502
rthumb 10.9828 -53.9271
lclavicle 3.42904e-015 -1.23246e-014
lhumerus -25.9798 5.62162 86.566
lradius 37.3995
lwrist -15.0335
lhand -15.3616 27.2194
lfingers 7.12502
lthumb 10.8159 56.921
rfemur -17.5377 -2.57682 22.4703
rtibia 57.5553
rfoot 3.29597 -14.7929
rtoes 4.1158
lfemur -22.9419 -1.84716 -14.6824
ltibia 20.9209
lfoot -5.47906 7.22657
ltoes 2.84946
120
root 34.835 17.5764 5.47787 153.476 -83.764 -144.629
lowerback -1.01404 -1.00844 1.20964
upperback -2.11251 -1.36248 0.448331
thorax -1.61253 -0.706212 -0.212139
lowerneck -17.2899 -8.61243 -11.5619
upperneck 11.5826 -10.5433 10.2046
head 7.55888 -4.72801 3.92812
rclavicle 4.24902e-015 3.57812e-015
rhumerus -28.4963 8.90993 -89.0982
rradius 44.6326
rwrist 11.9676
rhand -15.3364 -24.1253
rfingers 7.12502
rthumb 10.8403 -53.8255
lclavicle 4.24902e-015 3.57812e-015
lhumerus -25.5716 4.59365 87.1246
lradius 37.9962
lwrist -14.7438
lhand -15.4402 27.3881
lfingers 7.12502
lthumb 10.7401 57.0936
rfemur -18.5382 -2.82994 22.1806
rtibia 58.4249
rfoot 3.22491 -15.1883
rtoes 4.55398
lfemur -22.1811 -1.93742 -15.0122
ltibia 20.6901
lfoot -5.81735 7.27258
ltoes 2.86643
121
root 34.7119 17.5854 5.48885 154.562 -83.8341 -145.858
lowerback -0.954438 -1.05673 1.05989
upperback -2.11057 -1.42579 0.43805
thorax -1.6413 -0.735502 -0.137359
lowerneck -17.283 -8.57025 -11.5448
upperneck 11.6296 -10.4886 10.1713
head 7.56396 -4.70381 3.92244
rclavicle -2.06736e-014 8.74653e-015
rhumerus -28.3842 9.29184 -89.1613
rradius 45.6479
rwrist 12.2785
rhand -15.4959 -24.017
rfingers 7.12502
rthumb 10.6864 -53.7252
lclavicle -2.06736e-014 8.74653e-015
lhumerus -25.1714 3.5529 87.6754
lradius 38.6201
lwrist -14.4463
lhand -15.5085 27.5376
lfingers 7.12502
lthumb 10.6743 57.2464
rfemur -19.5337 -3.07446 21.906
rtibia 59.1822
rfoot 3.08012 -15.5891
rtoes 4.95104
lfemur -21.4204 -2.02502 -15.332
ltibia 20.4467
lfoot -6.15785 7.32302
ltoes 2.86894
122
root 34.5894 17.5938 5.49943 155.625 -83.8999 -147.058
lowerback -0.899802 -1.10713 0.918092
upperback -2.10735 -1.49217 0.432991
thorax -1.66579 -0.766368 -0.0617013
lowerneck -17.2795 -8.52617 -11.5239
upperneck 11.6691 -10.4309 10.1368
head 7.56656 -4.67809 3.91611
rclavicle 2.62396e-014 -2.78299e-015
rhumerus -28.2591 9.6691 -89.2119
rradius 46.6993
rwrist 12.5955
rhand -15.662 -23.9054
rfingers 7.12502
rthumb 10.5262 -53.6219
lclavicle 2.62396e-014 -2.78299e-015
lhumerus -24.7778 2.5061 88.2153
lradius 39.2692
lwrist -14.1435
lhand -15.5738 27.6895
lfingers 7.12502
lthumb 10.6113 57.4016
rfemur -20.5212 -3.31128 21.6459
rtibia 59.821
rfoot 2.86628 -15.9948
rtoes 5.31212
lfemur -20.6624 -2.11049 -15.6423
ltibia 20.1923
lfoot -6.49797 7.37801
ltoes 2.8518
123
root 34.4675 17.6017 5.50959 156.662 -83.962 -148.224
lowerback -0.837795 -1.15895 0.778371
upperback -2.11032 -1.56048 0.437426
thorax -1.70026 -0.79821 0.022877
lowerneck -17.2838 -8.48144 -11.501
upperneck 11.7104 -10.3706 10.0946
head 7.57023 -4.65139 3.90705
rclavicle 2.54444e-014 -6.75868e-015
rhumerus -28.1327 10.0436 -89.2448
rradius 47.7887
rwrist 12.915
rhand -15.8351 -23.7939
rfingers 7.12502
rthumb 10.3592 -53.5187
lclavicle 2.54444e-014 -6.75868e-015
lhumerus -24.4011 1.45499 88.7507
lradius 39.9448
lwrist -13.834
lhand -15.6355 27.8367
lfingers 7.12502
lthumb 10.5518 57.5518
rfemur -21.4976 -3.53994 21.4
rtibia 60.3365
rfoot 2.58702 -16.4021
rtoes 5.64083
lfemur -19.9085 -2.19306 -15.9433
ltibia 19.9281
lfoot -6.83677 7.43667
ltoes 2.81462
124
root 34.346 17.6089 5.51929 157.677 -84.0197 -149.361
lowerback -0.785778 -1.21242 0.649064
upperback -2.10862 -1.63126 0.444242
thorax -1.72427 -0.831346 0.103882
lowerneck -17.2934 -8.43522 -11.4718
upperneck 11.7414 -10.3085 10.0536
head 7.571 -4.6234 3.89751
rclavicle 1.3418e-015 8.74653e-015
rhumerus -27.9876 10.41 -89.2684
rradius 48.9098
rwrist 13.2367
rhand -16.0173 -23.6785
rfingers 7.12502
rthumb 10.1835 -53.412
lclavicle 1.3418e-015 8.74653e-015
lhumerus -24.0246 0.397736 89.2702
lradius 40.6435
lwrist -13.5167
lhand -15.6873 27.9658
lfingers 7.12502
lthumb 10.5018 57.6834
rfemur -22.4586 -3.75963 21.1675
rtibia 60.7227
rfoot 2.25217 -16.8051
rtoes 5.92877
lfemur -19.1589 -2.27303 -16.2348
ltibia 19.6553
lfoot -7.17546 7.49906
ltoes 2.75943
